<svg width="195" height="41" viewBox="0 0 195 41" fill="none" xmlns="http://www.w3.org/2000/svg">
  <g filter="url(#filter0_d_301_329)">
  <path fill-rule="evenodd" clip-rule="evenodd" d="M37.1649 18.6033C36.7221 19.031 36.5209 19.6472 36.6246 20.2516L37.2935 24.1189C37.5019 25.3228 36.5375 26.3005 35.4436 26.3005C35.1553 26.3005 34.8577 26.2323 34.5694 26.0822L31.0697 24.2562C30.7959 24.114 30.4963 24.0429 30.1956 24.0429C29.8959 24.0429 29.5962 24.114 29.3224 24.2562L25.8227 26.0822C25.5345 26.2323 25.2369 26.3005 24.9486 26.3005C23.8546 26.3005 22.8902 25.3228 23.0987 24.1189L23.7675 20.2516C23.8712 19.6472 23.67 19.031 23.2273 18.6033L20.3953 15.8648C19.2817 14.7874 19.8966 12.91 21.4354 12.6878L25.3489 12.1239C25.9607 12.036 26.4895 11.6548 26.7622 11.1047L28.5126 7.58701C28.8568 6.89472 29.5267 6.54908 30.1956 6.54908C30.8654 6.54908 31.5353 6.89472 31.8796 7.58701L33.6299 11.1047C33.9026 11.6548 34.4315 12.036 35.0433 12.1239L38.9567 12.6878C40.4956 12.91 41.1105 14.7874 39.9968 15.8648L37.1649 18.6033Z" fill="white"/>
  <path d="M52.7556 10.9129V7.27818C52.7556 3.26088 49.4975 0 45.4791 0V3.64018C47.4869 3.64018 49.1176 5.2698 49.1176 7.27818V10.9129C49.1176 13.0992 50.1016 15.0383 51.6281 16.3726C50.1016 17.7065 49.1176 19.6428 49.1176 21.8302V25.4682C49.1176 27.4776 47.4869 29.1067 45.4774 29.1067V32.7453C49.4937 32.7453 52.7556 29.4888 52.7556 25.4682V21.8302C52.7556 19.8207 54.3863 18.1916 56.3942 18.1916V14.5515C54.3831 14.5515 52.7556 12.9218 52.7556 10.9129Z" fill="white"/>
  <path d="M11.2787 10.9151V7.27655C11.2787 5.26708 12.9094 3.638 14.9189 3.638V0C10.9005 0 7.64018 3.25652 7.64018 7.27655L7.63855 10.9151C7.63855 12.9246 6.00947 14.5531 4 14.5531V18.1916L4.00164 18.1933C6.01111 18.1933 7.64018 19.8223 7.64018 21.8318V25.4665C7.64018 29.4833 10.8967 32.7453 14.9167 32.7453V29.1051C12.9073 29.1051 11.2787 27.476 11.2787 25.4665V21.8318C11.2787 19.645 10.2942 17.7065 8.76826 16.3726C10.2942 15.0383 11.2787 13.1008 11.2787 10.9151Z" fill="white"/>
  <path d="M90.6573 26.2573L90.6411 16.9967H82.2356V20.3847H86.1238L86.1076 24.644C85.9893 24.7838 85.8118 24.9182 85.5752 25.0473C85.3493 25.1656 85.0858 25.2732 84.7847 25.37C84.4835 25.4668 84.1608 25.5421 83.8167 25.5958C83.4725 25.6496 83.1229 25.6765 82.768 25.6765C82.1872 25.6657 81.6655 25.5743 81.203 25.4022C80.7513 25.2194 80.3533 24.9559 80.0092 24.6117C79.8048 24.4073 79.6166 24.1761 79.4445 23.918C79.2832 23.6491 79.138 23.3587 79.0089 23.0467C78.8045 22.509 78.6432 21.8905 78.5249 21.1914C78.4173 20.4923 78.3636 19.7179 78.3636 18.8682V15.6415C78.3636 14.9639 78.4012 14.3347 78.4765 13.7539C78.5625 13.1731 78.6808 12.646 78.8314 12.1728C79.025 11.5597 79.267 11.0273 79.5574 10.5756C79.8586 10.1238 80.192 9.75814 80.5577 9.47849C80.8374 9.27413 81.1385 9.11817 81.4612 9.01062C81.7839 8.90306 82.1173 8.84928 82.4615 8.84928C83.096 8.84928 83.6392 8.93533 84.0909 9.10742C84.5534 9.26875 84.9353 9.51613 85.2364 9.84956C85.5053 10.1507 85.715 10.5218 85.8656 10.9628C86.027 11.4038 86.1453 11.9093 86.2206 12.4793H90.6411C90.5228 11.35 90.2701 10.3336 89.8829 9.43009C89.5064 8.52661 88.9794 7.75759 88.3018 7.123C87.6242 6.49917 86.7906 6.02055 85.8011 5.68712C84.8223 5.3537 83.6715 5.18698 82.3485 5.18698C81.4881 5.18698 80.6706 5.3053 79.8962 5.54192C79.1218 5.77854 78.4066 6.1281 77.7505 6.5906C77.1912 6.99931 76.6749 7.48332 76.2017 8.04261C75.7392 8.6019 75.3305 9.23111 74.9755 9.93023C74.5991 10.7154 74.3087 11.592 74.1043 12.56C73.9 13.5172 73.7978 14.5552 73.7978 15.6737V18.8682C73.7978 20.0405 73.9 21.1269 74.1043 22.1271C74.3194 23.1274 74.6313 24.0255 75.0401 24.8214C75.395 25.5421 75.8252 26.182 76.3307 26.7413C76.847 27.3006 77.4171 27.7739 78.0409 28.1611C78.6755 28.5375 79.3692 28.8225 80.1221 29.0161C80.8857 29.2205 81.6978 29.3227 82.5583 29.3227C83.5478 29.3227 84.4728 29.2312 85.3332 29.0484C86.1937 28.8656 86.9734 28.6236 87.6726 28.3224C88.3609 28.032 88.9579 27.7039 89.4634 27.3383C89.9689 26.9726 90.3669 26.6122 90.6573 26.2573Z" fill="white"/>
  <path d="M95.707 11.5436V15.2059H100.676V25.3538H95.707V29H109.937V25.3538H105.21V11.5436H95.707ZM100.353 7.0746C100.353 7.41878 100.413 7.74145 100.531 8.04261C100.66 8.33301 100.837 8.58039 101.063 8.78475C101.289 8.99986 101.558 9.16658 101.87 9.28489C102.193 9.4032 102.548 9.46236 102.935 9.46236C103.731 9.46236 104.36 9.24187 104.822 8.80088C105.296 8.34915 105.532 7.77372 105.532 7.0746C105.532 6.37548 105.296 5.80543 104.822 5.36445C104.36 4.91271 103.731 4.68685 102.935 4.68685C102.548 4.68685 102.193 4.746 101.87 4.86431C101.558 4.98263 101.289 5.14396 101.063 5.34832C100.837 5.56343 100.66 5.82157 100.531 6.12273C100.413 6.41313 100.353 6.73042 100.353 7.0746Z" fill="white"/>
  <path d="M122.585 7.2682H118.1V11.5436H114.115V14.8509H118.1V22.7886C118.1 23.9395 118.251 24.929 118.552 25.7572C118.853 26.5746 119.283 27.2468 119.843 27.7739C120.391 28.3116 121.053 28.7096 121.827 28.9677C122.612 29.2151 123.484 29.3388 124.441 29.3388C124.936 29.3388 125.436 29.3119 125.941 29.2581C126.457 29.2151 126.952 29.1506 127.425 29.0645C127.899 28.9785 128.345 28.8709 128.765 28.7419C129.184 28.602 129.55 28.4407 129.862 28.2579L129.426 25.1764C129.222 25.2301 128.974 25.2839 128.684 25.3377C128.404 25.3915 128.103 25.4399 127.78 25.4829C127.447 25.5367 127.097 25.5797 126.732 25.612C126.377 25.6442 126.027 25.6604 125.683 25.6604C125.21 25.6604 124.78 25.6066 124.392 25.499C124.016 25.3915 123.693 25.2086 123.424 24.9505C123.155 24.7031 122.946 24.3697 122.795 23.9502C122.655 23.52 122.585 22.9876 122.585 22.353V14.8509H129.103V11.5436H122.585V7.2682Z" fill="white"/>
  <path d="M148.948 19.2715V15.5931H138.88V9.20422H150.206V5.50965H134.331V29H138.88V19.2715H148.948Z" fill="white"/>
  <path d="M164.952 29H169.502V28.7257C169.276 28.2847 169.104 27.7577 168.985 27.1446C168.867 26.5316 168.808 25.7572 168.808 24.8214V17.3355C168.808 16.3245 168.62 15.4371 168.243 14.6735C167.867 13.8991 167.345 13.2591 166.678 12.7536C166.011 12.2481 165.221 11.8662 164.307 11.6081C163.403 11.35 162.424 11.2209 161.37 11.2209C160.198 11.2209 159.155 11.3715 158.24 11.6726C157.337 11.963 156.573 12.361 155.949 12.8665C155.315 13.372 154.831 13.9582 154.497 14.6251C154.175 15.2919 154.013 15.9964 154.013 16.7386H158.499C158.499 16.4266 158.542 16.1416 158.628 15.8835C158.724 15.6253 158.87 15.4049 159.063 15.222C159.278 15.0177 159.558 14.8617 159.902 14.7541C160.246 14.6358 160.655 14.5767 161.128 14.5767C161.666 14.5767 162.134 14.6466 162.532 14.7864C162.941 14.9155 163.279 15.1037 163.548 15.3511C163.806 15.5877 164 15.8727 164.129 16.2062C164.258 16.5288 164.323 16.8945 164.323 17.3032V18.3358H161.822C160.531 18.3358 159.386 18.4541 158.386 18.6907C157.396 18.9166 156.563 19.25 155.885 19.691C155.132 20.175 154.567 20.7934 154.191 21.5463C153.814 22.2885 153.626 23.1435 153.626 24.1116C153.626 24.8645 153.777 25.5636 154.078 26.2089C154.379 26.8435 154.799 27.392 155.336 27.8545C155.874 28.317 156.514 28.6773 157.256 28.9355C158.009 29.1936 158.832 29.3227 159.725 29.3227C160.273 29.3227 160.784 29.2689 161.257 29.1613C161.731 29.0645 162.166 28.9247 162.564 28.7419C162.951 28.5698 163.306 28.3654 163.629 28.1288C163.952 27.8922 164.237 27.6394 164.484 27.3705C164.538 27.6824 164.602 27.9782 164.678 28.2579C164.753 28.5375 164.844 28.7849 164.952 29ZM160.677 25.854C160.257 25.854 159.886 25.8056 159.563 25.7088C159.251 25.6012 158.988 25.4614 158.773 25.2893C158.558 25.1065 158.391 24.886 158.273 24.6278C158.165 24.3589 158.111 24.0685 158.111 23.7566C158.111 23.3587 158.187 22.993 158.337 22.6595C158.488 22.3154 158.719 22.0196 159.031 21.7722C159.343 21.5356 159.746 21.3527 160.241 21.2237C160.736 21.0838 161.333 21.0139 162.032 21.0139H164.323V24.0148C164.194 24.2406 164.016 24.4665 163.79 24.6924C163.564 24.9075 163.296 25.1011 162.984 25.2732C162.672 25.4453 162.322 25.5851 161.935 25.6926C161.548 25.8002 161.128 25.854 160.677 25.854Z" fill="white"/>
  <path d="M179.44 29H183.651L190.282 11.5436H185.603L181.779 23.8534L181.537 25.0796L181.295 23.8534L177.455 11.5436H172.777L179.44 29Z" fill="white"/>
  </g>
  <defs>
  <filter id="filter0_d_301_329" x="0" y="0" width="194.281" height="40.7453" filterUnits="userSpaceOnUse" color-interpolation-filters="sRGB">
  <feFlood flood-opacity="0" result="BackgroundImageFix"/>
  <feColorMatrix in="SourceAlpha" type="matrix" values="0 0 0 0 0 0 0 0 0 0 0 0 0 0 0 0 0 0 127 0" result="hardAlpha"/>
  <feOffset dy="4"/>
  <feGaussianBlur stdDeviation="2"/>
  <feComposite in2="hardAlpha" operator="out"/>
  <feColorMatrix type="matrix" values="0 0 0 0 0 0 0 0 0 0 0 0 0 0 0 0 0 0 0.25 0"/>
  <feBlend mode="normal" in2="BackgroundImageFix" result="effect1_dropShadow_301_329"/>
  <feBlend mode="normal" in="SourceGraphic" in2="effect1_dropShadow_301_329" result="shape"/>
  </filter>
  </defs>
  </svg>
  